<svg xmlns="http://www.w3.org/2000/svg" xmlns:xlink="http://www.w3.org/1999/xlink" width="500" zoomAndPan="magnify" viewBox="0 0 375 374.999991" height="500" preserveAspectRatio="xMidYMid meet" version="1.0"><defs><g/><clipPath id="4fe360b834"><path d="M 34.316406 111.050781 L 91.316406 111.050781 L 91.316406 179.300781 L 34.316406 179.300781 Z M 34.316406 111.050781 " clip-rule="nonzero"/></clipPath><clipPath id="e5b30c912c"><path d="M 34.316406 111.050781 L 91.3125 111.050781 L 91.3125 179.300781 L 34.316406 179.300781 Z M 34.316406 111.050781 " clip-rule="nonzero"/></clipPath></defs><rect x="-37.5" width="450" fill="#ffffff" y="-37.499999" height="449.999989" fill-opacity="1"/><rect x="-37.5" width="450" fill="#ffffff" y="-37.499999" height="449.999989" fill-opacity="1"/><rect x="-37.5" width="450" fill="#ffffff" y="-37.499999" height="449.999989" fill-opacity="1"/><g clip-path="url(#4fe360b834)"><path fill="#ffffff" d="M 34.316406 111.050781 L 91.3125 111.050781 L 91.3125 179.300781 L 34.316406 179.300781 L 34.316406 111.050781 " fill-opacity="1" fill-rule="nonzero"/></g><g clip-path="url(#e5b30c912c)"><path stroke-linecap="butt" transform="matrix(0.745402, 0, 0, 0.75129, 34.317626, 111.049994)" fill="none" stroke-linejoin="miter" d="M -0.00163573 0.00104745 L 76.461881 0.00104745 L 76.461881 90.844805 L -0.00163573 90.844805 L -0.00163573 0.00104745 " stroke="#000000" stroke-width="8" stroke-opacity="1" stroke-miterlimit="4"/></g><g fill="#000000" fill-opacity="1"><g transform="translate(91.669218, 171.399994)"><g><path d="M 2.75 -17.65625 C 2.75 -21.25 3.472656 -24.398438 4.921875 -27.109375 C 6.378906 -29.816406 8.375 -31.914062 10.90625 -33.40625 C 13.445312 -34.894531 16.273438 -35.640625 19.390625 -35.640625 C 22.460938 -35.640625 25.128906 -34.976562 27.390625 -33.65625 C 29.648438 -32.34375 31.335938 -30.679688 32.453125 -28.671875 L 32.453125 -35.078125 L 38.328125 -35.078125 L 38.328125 0 L 32.453125 0 L 32.453125 -6.53125 C 31.296875 -4.476562 29.578125 -2.78125 27.296875 -1.4375 C 25.015625 -0.09375 22.359375 0.578125 19.328125 0.578125 C 16.210938 0.578125 13.394531 -0.1875 10.875 -1.71875 C 8.363281 -3.257812 6.378906 -5.414062 4.921875 -8.1875 C 3.472656 -10.96875 2.75 -14.125 2.75 -17.65625 Z M 32.453125 -17.59375 C 32.453125 -20.238281 31.914062 -22.539062 30.84375 -24.5 C 29.78125 -26.46875 28.34375 -27.972656 26.53125 -29.015625 C 24.71875 -30.066406 22.722656 -30.59375 20.546875 -30.59375 C 18.367188 -30.59375 16.382812 -30.078125 14.59375 -29.046875 C 12.800781 -28.023438 11.367188 -26.53125 10.296875 -24.5625 C 9.234375 -22.601562 8.703125 -20.300781 8.703125 -17.65625 C 8.703125 -14.96875 9.234375 -12.632812 10.296875 -10.65625 C 11.367188 -8.675781 12.800781 -7.160156 14.59375 -6.109375 C 16.382812 -5.066406 18.367188 -4.546875 20.546875 -4.546875 C 22.722656 -4.546875 24.71875 -5.066406 26.53125 -6.109375 C 28.34375 -7.160156 29.78125 -8.675781 30.84375 -10.65625 C 31.914062 -12.632812 32.453125 -14.945312 32.453125 -17.59375 Z M 32.453125 -17.59375 "/></g></g></g><g fill="#000000" fill-opacity="1"><g transform="translate(134.93056, 171.399994)"><g><path d="M 22.015625 -35.71875 C 26.285156 -35.71875 29.742188 -34.425781 32.390625 -31.84375 C 35.035156 -29.257812 36.359375 -25.535156 36.359375 -20.671875 L 36.359375 0 L 30.59375 0 L 30.59375 -19.84375 C 30.59375 -23.34375 29.71875 -26.019531 27.96875 -27.875 C 26.21875 -29.726562 23.828125 -30.65625 20.796875 -30.65625 C 17.722656 -30.65625 15.28125 -29.691406 13.46875 -27.765625 C 11.65625 -25.847656 10.75 -23.054688 10.75 -19.390625 L 10.75 0 L 4.921875 0 L 4.921875 -35.078125 L 10.75 -35.078125 L 10.75 -30.078125 C 11.90625 -31.867188 13.472656 -33.253906 15.453125 -34.234375 C 17.441406 -35.222656 19.628906 -35.71875 22.015625 -35.71875 Z M 22.015625 -35.71875 "/></g></g></g><g fill="#000000" fill-opacity="1"><g transform="translate(175.888046, 171.399994)"><g><path d="M 2.75 -17.65625 C 2.75 -21.25 3.472656 -24.398438 4.921875 -27.109375 C 6.378906 -29.816406 8.375 -31.914062 10.90625 -33.40625 C 13.445312 -34.894531 16.273438 -35.640625 19.390625 -35.640625 C 22.460938 -35.640625 25.128906 -34.976562 27.390625 -33.65625 C 29.648438 -32.34375 31.335938 -30.679688 32.453125 -28.671875 L 32.453125 -35.078125 L 38.328125 -35.078125 L 38.328125 0 L 32.453125 0 L 32.453125 -6.53125 C 31.296875 -4.476562 29.578125 -2.78125 27.296875 -1.4375 C 25.015625 -0.09375 22.359375 0.578125 19.328125 0.578125 C 16.210938 0.578125 13.394531 -0.1875 10.875 -1.71875 C 8.363281 -3.257812 6.378906 -5.414062 4.921875 -8.1875 C 3.472656 -10.96875 2.75 -14.125 2.75 -17.65625 Z M 32.453125 -17.59375 C 32.453125 -20.238281 31.914062 -22.539062 30.84375 -24.5 C 29.78125 -26.46875 28.34375 -27.972656 26.53125 -29.015625 C 24.71875 -30.066406 22.722656 -30.59375 20.546875 -30.59375 C 18.367188 -30.59375 16.382812 -30.078125 14.59375 -29.046875 C 12.800781 -28.023438 11.367188 -26.53125 10.296875 -24.5625 C 9.234375 -22.601562 8.703125 -20.300781 8.703125 -17.65625 C 8.703125 -14.96875 9.234375 -12.632812 10.296875 -10.65625 C 11.367188 -8.675781 12.800781 -7.160156 14.59375 -6.109375 C 16.382812 -5.066406 18.367188 -4.546875 20.546875 -4.546875 C 22.722656 -4.546875 24.71875 -5.066406 26.53125 -6.109375 C 28.34375 -7.160156 29.78125 -8.675781 30.84375 -10.65625 C 31.914062 -12.632812 32.453125 -14.945312 32.453125 -17.59375 Z M 32.453125 -17.59375 "/></g></g></g><g fill="#000000" fill-opacity="1"><g transform="translate(219.149388, 171.399994)"><g><path d="M 36.03125 -35.078125 L 36.03125 0 L 30.203125 0 L 30.203125 -5.1875 C 29.097656 -3.394531 27.550781 -1.992188 25.5625 -0.984375 C 23.582031 0.015625 21.398438 0.515625 19.015625 0.515625 C 16.273438 0.515625 13.816406 -0.046875 11.640625 -1.171875 C 9.472656 -2.304688 7.757812 -4.003906 6.5 -6.265625 C 5.238281 -8.523438 4.609375 -11.28125 4.609375 -14.53125 L 4.609375 -35.078125 L 10.375 -35.078125 L 10.375 -15.296875 C 10.375 -11.835938 11.242188 -9.179688 12.984375 -7.328125 C 14.734375 -5.472656 17.125 -4.546875 20.15625 -4.546875 C 23.269531 -4.546875 25.722656 -5.503906 27.515625 -7.421875 C 29.304688 -9.335938 30.203125 -12.132812 30.203125 -15.8125 L 30.203125 -35.078125 Z M 36.03125 -35.078125 "/></g></g></g><g fill="#5271ff" fill-opacity="1"><g transform="translate(40.304397, 167.246862)"><g><path d="M 19.328125 -44.484375 C 24.066406 -44.484375 28.21875 -43.578125 31.78125 -41.765625 C 35.34375 -39.953125 38.09375 -37.347656 40.03125 -33.953125 C 41.96875 -30.554688 42.9375 -26.597656 42.9375 -22.078125 C 42.9375 -17.554688 41.96875 -13.628906 40.03125 -10.296875 C 38.09375 -6.972656 35.34375 -4.425781 31.78125 -2.65625 C 28.21875 -0.882812 24.066406 0 19.328125 0 L 4.796875 0 L 4.796875 -44.484375 Z M 19.328125 -5.953125 C 24.535156 -5.953125 28.523438 -7.359375 31.296875 -10.171875 C 34.066406 -12.992188 35.453125 -16.960938 35.453125 -22.078125 C 35.453125 -27.242188 34.066406 -31.273438 31.296875 -34.171875 C 28.523438 -37.078125 24.535156 -38.53125 19.328125 -38.53125 L 12.09375 -38.53125 L 12.09375 -5.953125 Z M 19.328125 -5.953125 "/></g></g></g><g fill="#5271ff" fill-opacity="1"><g transform="translate(37.500002, 225.938613)"><g><path d="M 28.609375 -22.84375 C 30.992188 -22.414062 33.019531 -21.15625 34.6875 -19.0625 C 36.351562 -16.976562 37.1875 -14.613281 37.1875 -11.96875 C 37.1875 -9.707031 36.597656 -7.671875 35.421875 -5.859375 C 34.242188 -4.046875 32.546875 -2.613281 30.328125 -1.5625 C 28.117188 -0.519531 25.539062 0 22.59375 0 L 4.796875 0 L 4.796875 -44.484375 L 21.765625 -44.484375 C 24.785156 -44.484375 27.382812 -43.96875 29.5625 -42.9375 C 31.738281 -41.914062 33.378906 -40.539062 34.484375 -38.8125 C 35.597656 -37.082031 36.15625 -35.15625 36.15625 -33.03125 C 36.15625 -30.46875 35.472656 -28.332031 34.109375 -26.625 C 32.742188 -24.914062 30.910156 -23.65625 28.609375 -22.84375 Z M 12.09375 -25.796875 L 21.125 -25.796875 C 23.507812 -25.796875 25.375 -26.335938 26.71875 -27.421875 C 28.0625 -28.515625 28.734375 -30.082031 28.734375 -32.125 C 28.734375 -34.132812 28.0625 -35.703125 26.71875 -36.828125 C 25.375 -37.960938 23.507812 -38.53125 21.125 -38.53125 L 12.09375 -38.53125 Z M 21.953125 -5.953125 C 24.421875 -5.953125 26.359375 -6.546875 27.765625 -7.734375 C 29.179688 -8.929688 29.890625 -10.597656 29.890625 -12.734375 C 29.890625 -14.910156 29.140625 -16.640625 27.640625 -17.921875 C 26.148438 -19.203125 24.171875 -19.84375 21.703125 -19.84375 L 12.09375 -19.84375 L 12.09375 -5.953125 Z M 21.953125 -5.953125 "/></g></g></g><path stroke-linecap="butt" transform="matrix(3.002389, 0, 0, 3, 98.240909, 176.738616)" fill="none" stroke-linejoin="miter" d="M 0.000425745 -0.000111715 L 53.95746 -0.000111715 " stroke="#000000" stroke-width="1" stroke-opacity="1" stroke-miterlimit="4"/><g fill="#000000" fill-opacity="1"><g transform="translate(76.226373, 225.938613)"><g><path d="M 20.21875 0.578125 C 16.9375 0.578125 13.960938 -0.164062 11.296875 -1.65625 C 8.628906 -3.15625 6.535156 -5.28125 5.015625 -8.03125 C 3.503906 -10.78125 2.75 -13.96875 2.75 -17.59375 C 2.75 -21.175781 3.523438 -24.34375 5.078125 -27.09375 C 6.640625 -29.851562 8.765625 -31.96875 11.453125 -33.4375 C 14.140625 -34.90625 17.148438 -35.640625 20.484375 -35.640625 C 23.804688 -35.640625 26.8125 -34.90625 29.5 -33.4375 C 32.1875 -31.96875 34.304688 -29.867188 35.859375 -27.140625 C 37.421875 -24.410156 38.203125 -21.226562 38.203125 -17.59375 C 38.203125 -13.96875 37.398438 -10.78125 35.796875 -8.03125 C 34.203125 -5.28125 32.039062 -3.15625 29.3125 -1.65625 C 26.582031 -0.164062 23.550781 0.578125 20.21875 0.578125 Z M 20.21875 -4.546875 C 22.3125 -4.546875 24.273438 -5.035156 26.109375 -6.015625 C 27.941406 -6.992188 29.421875 -8.460938 30.546875 -10.421875 C 31.679688 -12.390625 32.25 -14.78125 32.25 -17.59375 C 32.25 -20.414062 31.691406 -22.804688 30.578125 -24.765625 C 29.472656 -26.734375 28.023438 -28.195312 26.234375 -29.15625 C 24.441406 -30.113281 22.503906 -30.59375 20.421875 -30.59375 C 18.285156 -30.59375 16.332031 -30.113281 14.5625 -29.15625 C 12.789062 -28.195312 11.367188 -26.734375 10.296875 -24.765625 C 9.234375 -22.804688 8.703125 -20.414062 8.703125 -17.59375 C 8.703125 -14.738281 9.222656 -12.328125 10.265625 -10.359375 C 11.316406 -8.398438 12.71875 -6.941406 14.46875 -5.984375 C 16.21875 -5.023438 18.132812 -4.546875 20.21875 -4.546875 Z M 20.21875 -4.546875 "/></g></g></g><g fill="#000000" fill-opacity="1"><g transform="translate(117.183859, 225.938613)"><g><path d="M 20.21875 0.578125 C 16.9375 0.578125 13.960938 -0.164062 11.296875 -1.65625 C 8.628906 -3.15625 6.535156 -5.28125 5.015625 -8.03125 C 3.503906 -10.78125 2.75 -13.96875 2.75 -17.59375 C 2.75 -21.175781 3.523438 -24.34375 5.078125 -27.09375 C 6.640625 -29.851562 8.765625 -31.96875 11.453125 -33.4375 C 14.140625 -34.90625 17.148438 -35.640625 20.484375 -35.640625 C 23.804688 -35.640625 26.8125 -34.90625 29.5 -33.4375 C 32.1875 -31.96875 34.304688 -29.867188 35.859375 -27.140625 C 37.421875 -24.410156 38.203125 -21.226562 38.203125 -17.59375 C 38.203125 -13.96875 37.398438 -10.78125 35.796875 -8.03125 C 34.203125 -5.28125 32.039062 -3.15625 29.3125 -1.65625 C 26.582031 -0.164062 23.550781 0.578125 20.21875 0.578125 Z M 20.21875 -4.546875 C 22.3125 -4.546875 24.273438 -5.035156 26.109375 -6.015625 C 27.941406 -6.992188 29.421875 -8.460938 30.546875 -10.421875 C 31.679688 -12.390625 32.25 -14.78125 32.25 -17.59375 C 32.25 -20.414062 31.691406 -22.804688 30.578125 -24.765625 C 29.472656 -26.734375 28.023438 -28.195312 26.234375 -29.15625 C 24.441406 -30.113281 22.503906 -30.59375 20.421875 -30.59375 C 18.285156 -30.59375 16.332031 -30.113281 14.5625 -29.15625 C 12.789062 -28.195312 11.367188 -26.734375 10.296875 -24.765625 C 9.234375 -22.804688 8.703125 -20.414062 8.703125 -17.59375 C 8.703125 -14.738281 9.222656 -12.328125 10.265625 -10.359375 C 11.316406 -8.398438 12.71875 -6.941406 14.46875 -5.984375 C 16.21875 -5.023438 18.132812 -4.546875 20.21875 -4.546875 Z M 20.21875 -4.546875 "/></g></g></g><g fill="#000000" fill-opacity="1"><g transform="translate(158.141345, 225.938613)"><g><path d="M 24.515625 0 L 10.75 -15.484375 L 10.75 0 L 4.921875 0 L 4.921875 -47.359375 L 10.75 -47.359375 L 10.75 -19.515625 L 24.25 -35.078125 L 32.390625 -35.078125 L 15.875 -17.59375 L 32.453125 0 Z M 24.515625 0 "/></g></g></g><g fill="#000000" fill-opacity="1"><g transform="translate(191.099321, 225.938613)"><g><path d="M 17.34375 0.578125 C 14.65625 0.578125 12.242188 0.117188 10.109375 -0.796875 C 7.972656 -1.710938 6.285156 -2.992188 5.046875 -4.640625 C 3.816406 -6.285156 3.140625 -8.171875 3.015625 -10.296875 L 9.03125 -10.296875 C 9.195312 -8.554688 10.015625 -7.128906 11.484375 -6.015625 C 12.960938 -4.910156 14.894531 -4.359375 17.28125 -4.359375 C 19.5 -4.359375 21.25 -4.847656 22.53125 -5.828125 C 23.8125 -6.804688 24.453125 -8.039062 24.453125 -9.53125 C 24.453125 -11.070312 23.769531 -12.210938 22.40625 -12.953125 C 21.039062 -13.703125 18.925781 -14.441406 16.0625 -15.171875 C 13.457031 -15.847656 11.332031 -16.535156 9.6875 -17.234375 C 8.050781 -17.941406 6.644531 -18.988281 5.46875 -20.375 C 4.300781 -21.769531 3.71875 -23.597656 3.71875 -25.859375 C 3.71875 -27.648438 4.25 -29.289062 5.3125 -30.78125 C 6.375 -32.28125 7.882812 -33.460938 9.84375 -34.328125 C 11.8125 -35.203125 14.054688 -35.640625 16.578125 -35.640625 C 20.460938 -35.640625 23.597656 -34.660156 25.984375 -32.703125 C 28.367188 -30.742188 29.648438 -28.054688 29.828125 -24.640625 L 24 -24.640625 C 23.875 -26.472656 23.140625 -27.941406 21.796875 -29.046875 C 20.453125 -30.160156 18.648438 -30.71875 16.390625 -30.71875 C 14.296875 -30.71875 12.628906 -30.269531 11.390625 -29.375 C 10.148438 -28.476562 9.53125 -27.304688 9.53125 -25.859375 C 9.53125 -24.703125 9.90625 -23.75 10.65625 -23 C 11.40625 -22.257812 12.34375 -21.664062 13.46875 -21.21875 C 14.601562 -20.769531 16.171875 -20.269531 18.171875 -19.71875 C 20.691406 -19.03125 22.738281 -18.351562 24.3125 -17.6875 C 25.894531 -17.03125 27.25 -16.039062 28.375 -14.71875 C 29.507812 -13.394531 30.097656 -11.664062 30.140625 -9.53125 C 30.140625 -7.613281 29.601562 -5.882812 28.53125 -4.34375 C 27.46875 -2.8125 25.96875 -1.609375 24.03125 -0.734375 C 22.09375 0.140625 19.863281 0.578125 17.34375 0.578125 Z M 17.34375 0.578125 "/></g></g></g><g fill="#000000" fill-opacity="1"><g transform="translate(224.505275, 225.938613)"><g><path d="M 12.03125 -30.265625 L 12.03125 -9.59375 C 12.03125 -7.894531 12.390625 -6.691406 13.109375 -5.984375 C 13.835938 -5.273438 15.097656 -4.921875 16.890625 -4.921875 L 21.1875 -4.921875 L 21.1875 0 L 15.9375 0 C 12.695312 0 10.265625 -0.742188 8.640625 -2.234375 C 7.015625 -3.734375 6.203125 -6.1875 6.203125 -9.59375 L 6.203125 -30.265625 L 1.65625 -30.265625 L 1.65625 -35.078125 L 6.203125 -35.078125 L 6.203125 -43.90625 L 12.03125 -43.90625 L 12.03125 -35.078125 L 21.1875 -35.078125 L 21.1875 -30.265625 Z M 12.03125 -30.265625 "/></g></g></g><g fill="#000000" fill-opacity="1"><g transform="translate(247.799848, 225.938613)"><g><path d="M 20.21875 0.578125 C 16.9375 0.578125 13.960938 -0.164062 11.296875 -1.65625 C 8.628906 -3.15625 6.535156 -5.28125 5.015625 -8.03125 C 3.503906 -10.78125 2.75 -13.96875 2.75 -17.59375 C 2.75 -21.175781 3.523438 -24.34375 5.078125 -27.09375 C 6.640625 -29.851562 8.765625 -31.96875 11.453125 -33.4375 C 14.140625 -34.90625 17.148438 -35.640625 20.484375 -35.640625 C 23.804688 -35.640625 26.8125 -34.90625 29.5 -33.4375 C 32.1875 -31.96875 34.304688 -29.867188 35.859375 -27.140625 C 37.421875 -24.410156 38.203125 -21.226562 38.203125 -17.59375 C 38.203125 -13.96875 37.398438 -10.78125 35.796875 -8.03125 C 34.203125 -5.28125 32.039062 -3.15625 29.3125 -1.65625 C 26.582031 -0.164062 23.550781 0.578125 20.21875 0.578125 Z M 20.21875 -4.546875 C 22.3125 -4.546875 24.273438 -5.035156 26.109375 -6.015625 C 27.941406 -6.992188 29.421875 -8.460938 30.546875 -10.421875 C 31.679688 -12.390625 32.25 -14.78125 32.25 -17.59375 C 32.25 -20.414062 31.691406 -22.804688 30.578125 -24.765625 C 29.472656 -26.734375 28.023438 -28.195312 26.234375 -29.15625 C 24.441406 -30.113281 22.503906 -30.59375 20.421875 -30.59375 C 18.285156 -30.59375 16.332031 -30.113281 14.5625 -29.15625 C 12.789062 -28.195312 11.367188 -26.734375 10.296875 -24.765625 C 9.234375 -22.804688 8.703125 -20.414062 8.703125 -17.59375 C 8.703125 -14.738281 9.222656 -12.328125 10.265625 -10.359375 C 11.316406 -8.398438 12.71875 -6.941406 14.46875 -5.984375 C 16.21875 -5.023438 18.132812 -4.546875 20.21875 -4.546875 Z M 20.21875 -4.546875 "/></g></g></g><g fill="#000000" fill-opacity="1"><g transform="translate(288.757334, 225.938613)"><g><path d="M 10.75 -29.375 C 11.769531 -31.382812 13.226562 -32.941406 15.125 -34.046875 C 17.03125 -35.160156 19.347656 -35.71875 22.078125 -35.71875 L 22.078125 -29.703125 L 20.546875 -29.703125 C 14.015625 -29.703125 10.75 -26.160156 10.75 -19.078125 L 10.75 0 L 4.921875 0 L 4.921875 -35.078125 L 10.75 -35.078125 Z M 10.75 -29.375 "/></g></g></g><g fill="#000000" fill-opacity="1"><g transform="translate(312.627877, 225.938613)"><g><path d="M 36.921875 -18.875 C 36.921875 -17.769531 36.859375 -16.597656 36.734375 -15.359375 L 8.703125 -15.359375 C 8.921875 -11.898438 10.101562 -9.203125 12.25 -7.265625 C 14.40625 -5.328125 17.019531 -4.359375 20.09375 -4.359375 C 22.613281 -4.359375 24.710938 -4.941406 26.390625 -6.109375 C 28.078125 -7.285156 29.265625 -8.851562 29.953125 -10.8125 L 36.21875 -10.8125 C 35.28125 -7.445312 33.40625 -4.707031 30.59375 -2.59375 C 27.78125 -0.476562 24.28125 0.578125 20.09375 0.578125 C 16.769531 0.578125 13.796875 -0.164062 11.171875 -1.65625 C 8.546875 -3.15625 6.484375 -5.28125 4.984375 -8.03125 C 3.492188 -10.78125 2.75 -13.96875 2.75 -17.59375 C 2.75 -21.226562 3.472656 -24.410156 4.921875 -27.140625 C 6.378906 -29.867188 8.414062 -31.96875 11.03125 -33.4375 C 13.65625 -34.90625 16.675781 -35.640625 20.09375 -35.640625 C 23.425781 -35.640625 26.367188 -34.914062 28.921875 -33.46875 C 31.484375 -32.019531 33.457031 -30.023438 34.84375 -27.484375 C 36.226562 -24.953125 36.921875 -22.082031 36.921875 -18.875 Z M 30.90625 -20.09375 C 30.90625 -22.3125 30.414062 -24.21875 29.4375 -25.8125 C 28.457031 -27.414062 27.125 -28.632812 25.4375 -29.46875 C 23.75 -30.300781 21.882812 -30.71875 19.84375 -30.71875 C 16.894531 -30.71875 14.382812 -29.78125 12.3125 -27.90625 C 10.25 -26.03125 9.066406 -23.425781 8.765625 -20.09375 Z M 30.90625 -20.09375 "/></g></g></g><g fill="#5271ff" fill-opacity="1"><g transform="translate(347.272246, 223.688613)"><g><path d="M 5.09375 0.28125 C 4.257812 0.28125 3.550781 -0.00390625 2.96875 -0.578125 C 2.394531 -1.148438 2.109375 -1.851562 2.109375 -2.6875 C 2.109375 -3.519531 2.394531 -4.222656 2.96875 -4.796875 C 3.550781 -5.367188 4.257812 -5.65625 5.09375 -5.65625 C 5.882812 -5.65625 6.5625 -5.367188 7.125 -4.796875 C 7.6875 -4.222656 7.96875 -3.519531 7.96875 -2.6875 C 7.96875 -1.851562 7.6875 -1.148438 7.125 -0.578125 C 6.5625 -0.00390625 5.882812 0.28125 5.09375 0.28125 Z M 5.09375 0.28125 "/></g></g></g></svg>