<svg xmlns="http://www.w3.org/2000/svg" xmlns:xlink="http://www.w3.org/1999/xlink" width="150" zoomAndPan="magnify" viewBox="0 0 112.5 112.499997" height="150" preserveAspectRatio="xMidYMid meet" version="1.0"><defs><g/><clipPath id="2bb47c5502"><path d="M 24.902344 15.074219 L 84.902344 15.074219 L 84.902344 95.324219 L 24.902344 95.324219 Z M 24.902344 15.074219 " clip-rule="nonzero"/></clipPath><clipPath id="bd8c337f2c"><path d="M 24.902344 15.078125 L 84.902344 15.078125 L 84.902344 95.320312 L 24.902344 95.320312 Z M 24.902344 15.078125 " clip-rule="nonzero"/></clipPath></defs><g clip-path="url(#2bb47c5502)"><path fill="#ffffff" d="M 24.902344 15.078125 L 84.902344 15.078125 L 84.902344 95.320312 L 24.902344 95.320312 L 24.902344 15.078125 " fill-opacity="1" fill-rule="nonzero"/></g><g clip-path="url(#bd8c337f2c)"><path stroke-linecap="butt" transform="matrix(0.751909, 0, 0, 0.752087, 24.902255, 15.07931)" fill="none" stroke-linejoin="miter" d="M 0.000117571 -0.00157499 L 79.797006 -0.00157499 L 79.797006 106.691175 L 0.000117571 106.691175 L 0.000117571 -0.00157499 " stroke="#000000" stroke-width="8" stroke-opacity="1" stroke-miterlimit="4"/></g><g fill="#5271ff" fill-opacity="1"><g transform="translate(29.73235, 79.974869)"><g><path d="M 21.375 -49.1875 C 26.613281 -49.1875 31.203125 -48.179688 35.140625 -46.171875 C 39.078125 -44.171875 42.117188 -41.296875 44.265625 -37.546875 C 46.421875 -33.796875 47.5 -29.421875 47.5 -24.421875 C 47.5 -19.421875 46.421875 -15.078125 44.265625 -11.390625 C 42.117188 -7.710938 39.078125 -4.894531 35.140625 -2.9375 C 31.203125 -0.976562 26.613281 0 21.375 0 L 5.3125 0 L 5.3125 -49.1875 Z M 21.375 -6.578125 C 27.132812 -6.578125 31.546875 -8.132812 34.609375 -11.25 C 37.679688 -14.363281 39.21875 -18.753906 39.21875 -24.421875 C 39.21875 -30.128906 37.679688 -34.585938 34.609375 -37.796875 C 31.546875 -41.003906 27.132812 -42.609375 21.375 -42.609375 L 13.375 -42.609375 L 13.375 -6.578125 Z M 21.375 -6.578125 "/></g></g></g></svg>